<svg width="385" height="137" viewBox="0 0 385 137" fill="none" xmlns="http://www.w3.org/2000/svg">
<rect width="385" height="137" rx="68.5" fill="#303541"/>
<path d="M142.745 53.2561H139.335V41.6197H142.949C144.059 41.6197 145.008 41.8508 145.796 42.3129C146.587 42.775 147.193 43.4379 147.614 44.3016C148.034 45.1652 148.245 46.2012 148.245 47.4095C148.245 48.6292 148.029 49.6766 147.597 50.5516C147.169 51.4228 146.544 52.0913 145.722 52.5572C144.904 53.0231 143.911 53.2561 142.745 53.2561ZM140.398 52.3016H142.682C143.682 52.3016 144.519 52.1046 145.193 51.7106C145.868 51.3167 146.373 50.7542 146.71 50.0231C147.048 49.2921 147.216 48.4209 147.216 47.4095C147.212 46.4057 147.046 45.5421 146.716 44.8186C146.39 44.0951 145.906 43.5402 145.262 43.1538C144.621 42.7675 143.83 42.5743 142.887 42.5743H140.398V52.3016ZM160.36 47.4379C160.36 48.65 160.144 49.705 159.712 50.6027C159.28 51.4966 158.685 52.1898 157.928 52.6822C157.174 53.1709 156.307 53.4152 155.326 53.4152C154.344 53.4152 153.475 53.1709 152.718 52.6822C151.964 52.1898 151.371 51.4966 150.939 50.6027C150.511 49.705 150.297 48.65 150.297 47.4379C150.297 46.2258 150.511 45.1728 150.939 44.2788C151.371 43.3811 151.966 42.6879 152.723 42.1993C153.481 41.7069 154.348 41.4606 155.326 41.4606C156.307 41.4606 157.174 41.7069 157.928 42.1993C158.685 42.6879 159.28 43.3811 159.712 44.2788C160.144 45.1728 160.36 46.2258 160.36 47.4379ZM159.326 47.4379C159.326 46.3963 159.151 45.5042 158.803 44.7618C158.454 44.0156 157.979 43.4455 157.377 43.0516C156.774 42.6576 156.091 42.4606 155.326 42.4606C154.564 42.4606 153.882 42.6576 153.28 43.0516C152.678 43.4455 152.201 44.0137 151.848 44.7561C151.5 45.4985 151.326 46.3925 151.326 47.4379C151.326 48.4796 151.5 49.3716 151.848 50.1141C152.197 50.8565 152.672 51.4266 153.274 51.8243C153.877 52.2182 154.56 52.4152 155.326 52.4152C156.091 52.4152 156.774 52.2182 157.377 51.8243C157.983 51.4303 158.46 50.8622 158.809 50.1197C159.157 49.3735 159.329 48.4796 159.326 47.4379ZM164.952 53.2561L161.764 41.6197H162.844L165.48 51.6254H165.571L168.208 41.6197H169.435L172.071 51.6254H172.162L174.799 41.6197H175.884L172.696 53.2561H171.56L168.861 43.3868H168.787L166.088 53.2561H164.952ZM186.867 41.6197V53.2561H185.833L178.958 43.5118H178.867V53.2561H177.804V41.6197H178.833L185.73 51.3754H185.821V41.6197H186.867ZM189.96 53.2561V41.6197H191.023V52.3016H196.568V53.2561H189.96ZM208.047 47.4379C208.047 48.65 207.831 49.705 207.399 50.6027C206.968 51.4966 206.373 52.1898 205.615 52.6822C204.862 53.1709 203.994 53.4152 203.013 53.4152C202.032 53.4152 201.163 53.1709 200.405 52.6822C199.651 52.1898 199.059 51.4966 198.627 50.6027C198.199 49.705 197.985 48.65 197.985 47.4379C197.985 46.2258 198.199 45.1728 198.627 44.2788C199.059 43.3811 199.653 42.6879 200.411 42.1993C201.168 41.7069 202.036 41.4606 203.013 41.4606C203.994 41.4606 204.862 41.7069 205.615 42.1993C206.373 42.6879 206.968 43.3811 207.399 44.2788C207.831 45.1728 208.047 46.2258 208.047 47.4379ZM207.013 47.4379C207.013 46.3963 206.839 45.5042 206.49 44.7618C206.142 44.0156 205.666 43.4455 205.064 43.0516C204.462 42.6576 203.778 42.4606 203.013 42.4606C202.252 42.4606 201.57 42.6576 200.968 43.0516C200.365 43.4455 199.888 44.0137 199.536 44.7561C199.187 45.4985 199.013 46.3925 199.013 47.4379C199.013 48.4796 199.187 49.3716 199.536 50.1141C199.884 50.8565 200.36 51.4266 200.962 51.8243C201.564 52.2182 202.248 52.4152 203.013 52.4152C203.778 52.4152 204.462 52.2182 205.064 51.8243C205.67 51.4303 206.148 50.8622 206.496 50.1197C206.844 49.3735 207.017 48.4796 207.013 47.4379ZM210.087 53.2561H208.973L213.206 41.6197H214.343L218.576 53.2561H217.462L213.814 43.0004H213.735L210.087 53.2561ZM210.888 48.7959H216.661V49.7504H210.888V48.7959ZM223.979 53.2561H220.57V41.6197H224.184C225.293 41.6197 226.242 41.8508 227.03 42.3129C227.822 42.775 228.428 43.4379 228.848 44.3016C229.269 45.1652 229.479 46.2012 229.479 47.4095C229.479 48.6292 229.263 49.6766 228.831 50.5516C228.403 51.4228 227.778 52.0913 226.956 52.5572C226.138 53.0231 225.146 53.2561 223.979 53.2561ZM221.632 52.3016H223.916C224.916 52.3016 225.754 52.1046 226.428 51.7106C227.102 51.3167 227.608 50.7542 227.945 50.0231C228.282 49.2921 228.451 48.4209 228.451 47.4095C228.447 46.4057 228.28 45.5421 227.951 44.8186C227.625 44.0951 227.14 43.5402 226.496 43.1538C225.856 42.7675 225.064 42.5743 224.121 42.5743H221.632V52.3016ZM246.094 47.4379C246.094 48.65 245.878 49.705 245.446 50.6027C245.014 51.4966 244.42 52.1898 243.662 52.6822C242.908 53.1709 242.041 53.4152 241.06 53.4152C240.079 53.4152 239.21 53.1709 238.452 52.6822C237.698 52.1898 237.105 51.4966 236.674 50.6027C236.246 49.705 236.032 48.65 236.032 47.4379C236.032 46.2258 236.246 45.1728 236.674 44.2788C237.105 43.3811 237.7 42.6879 238.458 42.1993C239.215 41.7069 240.083 41.4606 241.06 41.4606C242.041 41.4606 242.908 41.7069 243.662 42.1993C244.42 42.6879 245.014 43.3811 245.446 44.2788C245.878 45.1728 246.094 46.2258 246.094 47.4379ZM245.06 47.4379C245.06 46.3963 244.886 45.5042 244.537 44.7618C244.189 44.0156 243.713 43.4455 243.111 43.0516C242.509 42.6576 241.825 42.4606 241.06 42.4606C240.299 42.4606 239.617 42.6576 239.014 43.0516C238.412 43.4455 237.935 44.0137 237.583 44.7561C237.234 45.4985 237.06 46.3925 237.06 47.4379C237.06 48.4796 237.234 49.3716 237.583 50.1141C237.931 50.8565 238.407 51.4266 239.009 51.8243C239.611 52.2182 240.295 52.4152 241.06 52.4152C241.825 52.4152 242.509 52.2182 243.111 51.8243C243.717 51.4303 244.194 50.8622 244.543 50.1197C244.891 49.3735 245.064 48.4796 245.06 47.4379ZM257.726 41.6197V53.2561H256.692L249.817 43.5118H249.726V53.2561H248.664V41.6197H249.692L256.59 51.3754H256.681V41.6197H257.726Z" fill="white"/>
<path d="M153.694 82.0001H144.798L143.326 86.2561H138.622L146.654 63.8881H151.87L159.902 86.2561H155.166L153.694 82.0001ZM152.478 78.4161L149.246 69.0721L146.014 78.4161H152.478ZM167.384 71.0881C167.96 70.2774 168.75 69.6054 169.752 69.0721C170.776 68.5174 171.939 68.2401 173.24 68.2401C174.755 68.2401 176.12 68.6134 177.336 69.3601C178.574 70.1068 179.544 71.1734 180.248 72.5601C180.974 73.9254 181.336 75.5148 181.336 77.3281C181.336 79.1414 180.974 80.7521 180.248 82.1601C179.544 83.5468 178.574 84.6241 177.336 85.3921C176.12 86.1601 174.755 86.5441 173.24 86.5441C171.939 86.5441 170.787 86.2774 169.784 85.7441C168.803 85.2108 168.003 84.5388 167.384 83.7281V94.7041H162.904V68.5281H167.384V71.0881ZM176.76 77.3281C176.76 76.2614 176.536 75.3441 176.088 74.5761C175.662 73.7868 175.086 73.1894 174.36 72.7841C173.656 72.3788 172.888 72.1761 172.056 72.1761C171.246 72.1761 170.478 72.3894 169.752 72.8161C169.048 73.2214 168.472 73.8188 168.024 74.6081C167.598 75.3974 167.384 76.3254 167.384 77.3921C167.384 78.4588 167.598 79.3868 168.024 80.1761C168.472 80.9654 169.048 81.5734 169.752 82.0001C170.478 82.4054 171.246 82.6081 172.056 82.6081C172.888 82.6081 173.656 82.3948 174.36 81.9681C175.086 81.5414 175.662 80.9334 176.088 80.1441C176.536 79.3548 176.76 78.4161 176.76 77.3281ZM189.072 71.0881C189.648 70.2774 190.437 69.6054 191.44 69.0721C192.464 68.5174 193.626 68.2401 194.928 68.2401C196.442 68.2401 197.808 68.6134 199.024 69.3601C200.261 70.1068 201.232 71.1734 201.936 72.5601C202.661 73.9254 203.024 75.5148 203.024 77.3281C203.024 79.1414 202.661 80.7521 201.936 82.1601C201.232 83.5468 200.261 84.6241 199.024 85.3921C197.808 86.1601 196.442 86.5441 194.928 86.5441C193.626 86.5441 192.474 86.2774 191.472 85.7441C190.49 85.2108 189.69 84.5388 189.072 83.7281V94.7041H184.592V68.5281H189.072V71.0881ZM198.448 77.3281C198.448 76.2614 198.224 75.3441 197.776 74.5761C197.349 73.7868 196.773 73.1894 196.048 72.7841C195.344 72.3788 194.576 72.1761 193.744 72.1761C192.933 72.1761 192.165 72.3894 191.44 72.8161C190.736 73.2214 190.16 73.8188 189.712 74.6081C189.285 75.3974 189.072 76.3254 189.072 77.3921C189.072 78.4588 189.285 79.3868 189.712 80.1761C190.16 80.9654 190.736 81.5734 191.44 82.0001C192.165 82.4054 192.933 82.6081 193.744 82.6081C194.576 82.6081 195.344 82.3948 196.048 81.9681C196.773 81.5414 197.349 80.9334 197.776 80.1441C198.224 79.3548 198.448 78.4161 198.448 77.3281ZM221.616 86.4801C220.059 86.4801 218.651 86.2134 217.392 85.6801C216.155 85.1468 215.174 84.3788 214.448 83.3761C213.723 82.3734 213.35 81.1894 213.328 79.8241H218.128C218.192 80.7414 218.512 81.4668 219.088 82.0001C219.686 82.5334 220.496 82.8001 221.52 82.8001C222.566 82.8001 223.387 82.5548 223.984 82.0641C224.582 81.5521 224.88 80.8908 224.88 80.0801C224.88 79.4188 224.678 78.8748 224.272 78.4481C223.867 78.0214 223.355 77.6908 222.736 77.4561C222.139 77.2001 221.307 76.9228 220.24 76.6241C218.79 76.1974 217.606 75.7814 216.688 75.3761C215.792 74.9494 215.014 74.3201 214.352 73.4881C213.712 72.6348 213.392 71.5041 213.392 70.0961C213.392 68.7734 213.723 67.6214 214.384 66.6401C215.046 65.6588 215.974 64.9121 217.168 64.4001C218.363 63.8668 219.728 63.6001 221.264 63.6001C223.568 63.6001 225.435 64.1654 226.864 65.2961C228.315 66.4054 229.115 67.9628 229.264 69.9681H224.336C224.294 69.2001 223.963 68.5708 223.344 68.0801C222.747 67.5681 221.947 67.3121 220.944 67.3121C220.07 67.3121 219.366 67.5361 218.832 67.9841C218.32 68.4321 218.064 69.0828 218.064 69.9361C218.064 70.5334 218.256 71.0348 218.64 71.4401C219.046 71.8241 219.536 72.1441 220.112 72.4001C220.71 72.6348 221.542 72.9121 222.608 73.2321C224.059 73.6588 225.243 74.0854 226.16 74.5121C227.078 74.9388 227.867 75.5788 228.528 76.4321C229.19 77.2854 229.52 78.4054 229.52 79.7921C229.52 80.9868 229.211 82.0961 228.592 83.1201C227.974 84.1441 227.067 84.9654 225.872 85.5841C224.678 86.1814 223.259 86.4801 221.616 86.4801ZM238.62 72.2081V80.7841C238.62 81.3814 238.759 81.8188 239.036 82.0961C239.335 82.3521 239.826 82.4801 240.508 82.4801H242.588V86.2561H239.772C235.996 86.2561 234.108 84.4214 234.108 80.7521V72.2081H231.996V68.5281H234.108V64.1441H238.62V68.5281H242.588V72.2081H238.62ZM253.683 86.5441C251.976 86.5441 250.44 86.1708 249.075 85.4241C247.709 84.6561 246.632 83.5788 245.843 82.1921C245.075 80.8054 244.691 79.2054 244.691 77.3921C244.691 75.5788 245.085 73.9788 245.875 72.5921C246.685 71.2054 247.784 70.1388 249.171 69.3921C250.557 68.6241 252.104 68.2401 253.811 68.2401C255.517 68.2401 257.064 68.6241 258.451 69.3921C259.837 70.1388 260.925 71.2054 261.715 72.5921C262.525 73.9788 262.931 75.5788 262.931 77.3921C262.931 79.2054 262.515 80.8054 261.683 82.1921C260.872 83.5788 259.763 84.6561 258.355 85.4241C256.968 86.1708 255.411 86.5441 253.683 86.5441ZM253.683 82.6401C254.493 82.6401 255.251 82.4481 255.955 82.0641C256.68 81.6588 257.256 81.0614 257.683 80.2721C258.109 79.4828 258.323 78.5228 258.323 77.3921C258.323 75.7068 257.875 74.4161 256.979 73.5201C256.104 72.6028 255.027 72.1441 253.747 72.1441C252.467 72.1441 251.389 72.6028 250.515 73.5201C249.661 74.4161 249.235 75.7068 249.235 77.3921C249.235 79.0774 249.651 80.3788 250.483 81.2961C251.336 82.1921 252.403 82.6401 253.683 82.6401ZM270.697 71.2801C271.273 70.3414 272.019 69.6054 272.937 69.0721C273.875 68.5388 274.942 68.2721 276.137 68.2721V72.9761H274.953C273.545 72.9761 272.478 73.3068 271.753 73.9681C271.049 74.6294 270.697 75.7814 270.697 77.4241V86.2561H266.217V68.5281H270.697V71.2801ZM295.634 77.0081C295.634 77.6481 295.592 78.2241 295.506 78.7361H282.546C282.653 80.0161 283.101 81.0188 283.89 81.7441C284.68 82.4694 285.65 82.8321 286.802 82.8321C288.466 82.8321 289.65 82.1174 290.354 80.6881H295.186C294.674 82.3948 293.693 83.8028 292.242 84.9121C290.792 86.0001 289.01 86.5441 286.898 86.5441C285.192 86.5441 283.656 86.1708 282.29 85.4241C280.946 84.6561 279.89 83.5788 279.122 82.1921C278.376 80.8054 278.002 79.2054 278.002 77.3921C278.002 75.5574 278.376 73.9468 279.122 72.5601C279.869 71.1734 280.914 70.1068 282.258 69.3601C283.602 68.6134 285.149 68.2401 286.898 68.2401C288.584 68.2401 290.088 68.6028 291.41 69.3281C292.754 70.0534 293.789 71.0881 294.514 72.4321C295.261 73.7548 295.634 75.2801 295.634 77.0081ZM290.994 75.7281C290.973 74.5761 290.557 73.6588 289.746 72.9761C288.936 72.2721 287.944 71.9201 286.77 71.9201C285.661 71.9201 284.722 72.2614 283.954 72.9441C283.208 73.6054 282.749 74.5334 282.578 75.7281H290.994Z" fill="white"/>
<path d="M106.834 63.9869C106.801 57.9421 109.536 53.3796 115.07 50.0195C111.973 45.5888 107.296 43.1511 101.119 42.6734C95.2717 42.2122 88.8809 46.0829 86.542 46.0829C84.0714 46.0829 78.4053 42.8381 73.9582 42.8381C64.7673 42.9864 55 50.1677 55 64.7776C55 69.093 55.7906 73.5511 57.3718 78.152C59.4801 84.1969 67.0897 99.0208 75.0288 98.7738C79.1795 98.6749 82.1113 95.8255 87.5138 95.8255C92.7516 95.8255 95.4693 98.7738 100.098 98.7738C108.103 98.6585 114.988 85.1852 116.997 79.1238C106.258 74.0672 106.834 64.2999 106.834 63.9869ZM97.5117 36.9415C102.008 31.6049 101.597 26.7459 101.465 25C97.4953 25.2306 92.8999 27.7013 90.281 30.7484C87.3985 34.0097 85.702 38.0451 86.0644 42.5911C90.3633 42.9205 94.2834 40.7134 97.5117 36.9415Z" fill="white"/>
</svg>
