<svg width="385" height="137" viewBox="0 0 385 137" fill="none" xmlns="http://www.w3.org/2000/svg">
<rect width="385" height="137" rx="68.5" fill="#303541"/>
<path d="M147.387 45.2561C147.281 44.8697 147.125 44.508 146.921 44.1709C146.716 43.83 146.462 43.5326 146.159 43.2788C145.86 43.0213 145.514 42.8205 145.12 42.6766C144.729 42.5326 144.294 42.4606 143.813 42.4606C143.055 42.4606 142.377 42.6576 141.779 43.0516C141.18 43.4455 140.707 44.0137 140.358 44.7561C140.014 45.4985 139.841 46.3925 139.841 47.4379C139.841 48.4796 140.015 49.3716 140.364 50.1141C140.712 50.8565 141.19 51.4266 141.796 51.8243C142.406 52.2182 143.103 52.4152 143.887 52.4152C144.603 52.4152 145.235 52.2561 145.784 51.9379C146.334 51.6197 146.762 51.1652 147.068 50.5743C147.379 49.9834 147.531 49.2807 147.523 48.4663L147.864 48.5743H144.137V47.6197H148.557V48.5743C148.557 49.5667 148.356 50.4247 147.955 51.1481C147.553 51.8716 147.002 52.4303 146.301 52.8243C145.601 53.2182 144.796 53.4152 143.887 53.4152C142.871 53.4152 141.983 53.1709 141.222 52.6822C140.46 52.1898 139.868 51.4966 139.443 50.6027C139.023 49.705 138.813 48.65 138.813 47.4379C138.813 46.525 138.934 45.7012 139.176 44.9663C139.419 44.2315 139.762 43.6027 140.205 43.08C140.652 42.5572 141.18 42.1576 141.79 41.8811C142.4 41.6008 143.074 41.4606 143.813 41.4606C144.449 41.4606 145.031 41.561 145.557 41.7618C146.087 41.9625 146.553 42.2391 146.955 42.5913C147.36 42.9398 147.692 43.3432 147.949 43.8016C148.21 44.2561 148.387 44.741 148.478 45.2561H147.387ZM151.195 53.2561V41.6197H157.945V42.5743H152.257V46.955H157.587V47.9095H152.257V52.3016H158.059V53.2561H151.195ZM159.99 42.5743V41.6197H168.428V42.5743H164.74V53.2561H163.678V42.5743H159.99ZM176.382 41.6197V53.2561H175.32V41.6197H176.382ZM178.772 42.5743V41.6197H187.209V42.5743H183.522V53.2561H182.459V42.5743H178.772ZM203.641 47.4379C203.641 48.65 203.425 49.705 202.993 50.6027C202.561 51.4966 201.967 52.1898 201.209 52.6822C200.455 53.1709 199.588 53.4152 198.607 53.4152C197.626 53.4152 196.756 53.1709 195.999 52.6822C195.245 52.1898 194.652 51.4966 194.22 50.6027C193.792 49.705 193.578 48.65 193.578 47.4379C193.578 46.2258 193.792 45.1728 194.22 44.2788C194.652 43.3811 195.247 42.6879 196.005 42.1993C196.762 41.7069 197.63 41.4606 198.607 41.4606C199.588 41.4606 200.455 41.7069 201.209 42.1993C201.967 42.6879 202.561 43.3811 202.993 44.2788C203.425 45.1728 203.641 46.2258 203.641 47.4379ZM202.607 47.4379C202.607 46.3963 202.433 45.5042 202.084 44.7618C201.736 44.0156 201.26 43.4455 200.658 43.0516C200.056 42.6576 199.372 42.4606 198.607 42.4606C197.845 42.4606 197.164 42.6576 196.561 43.0516C195.959 43.4455 195.482 44.0137 195.13 44.7561C194.781 45.4985 194.607 46.3925 194.607 47.4379C194.607 48.4796 194.781 49.3716 195.13 50.1141C195.478 50.8565 195.953 51.4266 196.556 51.8243C197.158 52.2182 197.842 52.4152 198.607 52.4152C199.372 52.4152 200.056 52.2182 200.658 51.8243C201.264 51.4303 201.741 50.8622 202.09 50.1197C202.438 49.3735 202.611 48.4796 202.607 47.4379ZM215.273 41.6197V53.2561H214.239L207.364 43.5118H207.273V53.2561H206.21V41.6197H207.239L214.137 51.3754H214.228V41.6197H215.273Z" fill="white"/>
<path d="M155.55 70.6401C155.038 69.7014 154.334 68.9868 153.438 68.4961C152.542 68.0054 151.497 67.7601 150.302 67.7601C148.979 67.7601 147.806 68.0588 146.782 68.6561C145.758 69.2534 144.958 70.1068 144.382 71.2161C143.806 72.3254 143.518 73.6054 143.518 75.0561C143.518 76.5494 143.806 77.8508 144.382 78.9601C144.979 80.0694 145.801 80.9228 146.846 81.5201C147.891 82.1174 149.107 82.4161 150.494 82.4161C152.201 82.4161 153.598 81.9681 154.686 81.0721C155.774 80.1548 156.489 78.8854 156.83 77.2641H149.15V73.8401H161.246V77.7441C160.947 79.3014 160.307 80.7414 159.326 82.0641C158.345 83.3868 157.075 84.4534 155.518 85.2641C153.982 86.0534 152.254 86.4481 150.334 86.4481C148.179 86.4481 146.227 85.9681 144.478 85.0081C142.75 84.0268 141.385 82.6721 140.382 80.9441C139.401 79.2161 138.91 77.2534 138.91 75.0561C138.91 72.8588 139.401 70.8961 140.382 69.1681C141.385 67.4188 142.75 66.0641 144.478 65.1041C146.227 64.1228 148.169 63.6321 150.302 63.6321C152.819 63.6321 155.006 64.2508 156.862 65.4881C158.718 66.7041 159.998 68.4214 160.702 70.6401H155.55ZM172.433 86.5441C170.726 86.5441 169.19 86.1708 167.825 85.4241C166.459 84.6561 165.382 83.5788 164.593 82.1921C163.825 80.8054 163.441 79.2054 163.441 77.3921C163.441 75.5788 163.835 73.9788 164.625 72.5921C165.435 71.2054 166.534 70.1388 167.921 69.3921C169.307 68.6241 170.854 68.2401 172.561 68.2401C174.267 68.2401 175.814 68.6241 177.201 69.3921C178.587 70.1388 179.675 71.2054 180.465 72.5921C181.275 73.9788 181.681 75.5788 181.681 77.3921C181.681 79.2054 181.265 80.8054 180.433 82.1921C179.622 83.5788 178.513 84.6561 177.105 85.4241C175.718 86.1708 174.161 86.5441 172.433 86.5441ZM172.433 82.6401C173.243 82.6401 174.001 82.4481 174.705 82.0641C175.43 81.6588 176.006 81.0614 176.433 80.2721C176.859 79.4828 177.073 78.5228 177.073 77.3921C177.073 75.7068 176.625 74.4161 175.729 73.5201C174.854 72.6028 173.777 72.1441 172.497 72.1441C171.217 72.1441 170.139 72.6028 169.265 73.5201C168.411 74.4161 167.985 75.7068 167.985 77.3921C167.985 79.0774 168.401 80.3788 169.233 81.2961C170.086 82.1921 171.153 82.6401 172.433 82.6401ZM192.839 86.5441C191.132 86.5441 189.596 86.1708 188.231 85.4241C186.865 84.6561 185.788 83.5788 184.999 82.1921C184.231 80.8054 183.847 79.2054 183.847 77.3921C183.847 75.5788 184.241 73.9788 185.031 72.5921C185.841 71.2054 186.94 70.1388 188.327 69.3921C189.713 68.6241 191.26 68.2401 192.967 68.2401C194.673 68.2401 196.22 68.6241 197.607 69.3921C198.993 70.1388 200.081 71.2054 200.871 72.5921C201.681 73.9788 202.087 75.5788 202.087 77.3921C202.087 79.2054 201.671 80.8054 200.839 82.1921C200.028 83.5788 198.919 84.6561 197.511 85.4241C196.124 86.1708 194.567 86.5441 192.839 86.5441ZM192.839 82.6401C193.649 82.6401 194.407 82.4481 195.111 82.0641C195.836 81.6588 196.412 81.0614 196.839 80.2721C197.265 79.4828 197.479 78.5228 197.479 77.3921C197.479 75.7068 197.031 74.4161 196.135 73.5201C195.26 72.6028 194.183 72.1441 192.903 72.1441C191.623 72.1441 190.545 72.6028 189.671 73.5201C188.817 74.4161 188.391 75.7068 188.391 77.3921C188.391 79.0774 188.807 80.3788 189.639 81.2961C190.492 82.1921 191.559 82.6401 192.839 82.6401ZM212.317 68.2401C213.64 68.2401 214.802 68.5068 215.805 69.0401C216.808 69.5521 217.597 70.2241 218.173 71.0561V68.5281H222.685V86.3841C222.685 88.0268 222.354 89.4881 221.693 90.7681C221.032 92.0694 220.04 93.0934 218.717 93.8401C217.394 94.6081 215.794 94.9921 213.917 94.9921C211.4 94.9921 209.33 94.4054 207.709 93.2321C206.109 92.0588 205.202 90.4588 204.989 88.4321H209.437C209.672 89.2428 210.173 89.8828 210.941 90.3521C211.73 90.8428 212.68 91.0881 213.789 91.0881C215.09 91.0881 216.146 90.6934 216.957 89.9041C217.768 89.1361 218.173 87.9628 218.173 86.3841V83.6321C217.597 84.4641 216.797 85.1574 215.773 85.7121C214.77 86.2668 213.618 86.5441 212.317 86.5441C210.824 86.5441 209.458 86.1601 208.221 85.3921C206.984 84.6241 206.002 83.5468 205.277 82.1601C204.573 80.7521 204.221 79.1414 204.221 77.3281C204.221 75.5361 204.573 73.9468 205.277 72.5601C206.002 71.1734 206.973 70.1068 208.189 69.3601C209.426 68.6134 210.802 68.2401 212.317 68.2401ZM218.173 77.3921C218.173 76.3041 217.96 75.3761 217.533 74.6081C217.106 73.8188 216.53 73.2214 215.805 72.8161C215.08 72.3894 214.301 72.1761 213.469 72.1761C212.637 72.1761 211.869 72.3788 211.165 72.7841C210.461 73.1894 209.885 73.7868 209.437 74.5761C209.01 75.3441 208.797 76.2614 208.797 77.3281C208.797 78.3948 209.01 79.3334 209.437 80.1441C209.885 80.9334 210.461 81.5414 211.165 81.9681C211.89 82.3948 212.658 82.6081 213.469 82.6081C214.301 82.6081 215.08 82.4054 215.805 82.0001C216.53 81.5734 217.106 80.9761 217.533 80.2081C217.96 79.4188 218.173 78.4801 218.173 77.3921ZM231.541 62.5761V86.2561H227.061V62.5761H231.541ZM252.447 77.0081C252.447 77.6481 252.404 78.2241 252.319 78.7361H239.359C239.465 80.0161 239.913 81.0188 240.703 81.7441C241.492 82.4694 242.463 82.8321 243.615 82.8321C245.279 82.8321 246.463 82.1174 247.167 80.6881H251.999C251.487 82.3948 250.505 83.8028 249.055 84.9121C247.604 86.0001 245.823 86.5441 243.711 86.5441C242.004 86.5441 240.468 86.1708 239.103 85.4241C237.759 84.6561 236.703 83.5788 235.935 82.1921C235.188 80.8054 234.815 79.2054 234.815 77.3921C234.815 75.5574 235.188 73.9468 235.935 72.5601C236.681 71.1734 237.727 70.1068 239.071 69.3601C240.415 68.6134 241.961 68.2401 243.711 68.2401C245.396 68.2401 246.9 68.6028 248.223 69.3281C249.567 70.0534 250.601 71.0881 251.327 72.4321C252.073 73.7548 252.447 75.2801 252.447 77.0081ZM247.807 75.7281C247.785 74.5761 247.369 73.6588 246.559 72.9761C245.748 72.2721 244.756 71.9201 243.583 71.9201C242.473 71.9201 241.535 72.2614 240.767 72.9441C240.02 73.6054 239.561 74.5334 239.391 75.7281H247.807ZM279.63 70.8321C279.63 72.0268 279.342 73.1468 278.766 74.1921C278.211 75.2374 277.326 76.0801 276.11 76.7201C274.915 77.3601 273.4 77.6801 271.566 77.6801H267.822V86.2561H263.342V63.9201H271.566C273.294 63.9201 274.766 64.2188 275.982 64.8161C277.198 65.4134 278.104 66.2348 278.702 67.2801C279.32 68.3254 279.63 69.5094 279.63 70.8321ZM271.374 74.0641C272.611 74.0641 273.528 73.7868 274.126 73.2321C274.723 72.6561 275.022 71.8561 275.022 70.8321C275.022 68.6561 273.806 67.5681 271.374 67.5681H267.822V74.0641H271.374ZM287.291 62.5761V86.2561H282.811V62.5761H287.291ZM290.565 77.3281C290.565 75.5361 290.917 73.9468 291.621 72.5601C292.346 71.1734 293.317 70.1068 294.533 69.3601C295.77 68.6134 297.146 68.2401 298.661 68.2401C299.983 68.2401 301.135 68.5068 302.117 69.0401C303.119 69.5734 303.919 70.2454 304.517 71.0561V68.5281H309.029V86.2561H304.517V83.6641C303.941 84.4961 303.141 85.1894 302.117 85.7441C301.114 86.2774 299.951 86.5441 298.629 86.5441C297.135 86.5441 295.77 86.1601 294.533 85.3921C293.317 84.6241 292.346 83.5468 291.621 82.1601C290.917 80.7521 290.565 79.1414 290.565 77.3281ZM304.517 77.3921C304.517 76.3041 304.303 75.3761 303.877 74.6081C303.45 73.8188 302.874 73.2214 302.149 72.8161C301.423 72.3894 300.645 72.1761 299.813 72.1761C298.981 72.1761 298.213 72.3788 297.509 72.7841C296.805 73.1894 296.229 73.7868 295.781 74.5761C295.354 75.3441 295.141 76.2614 295.141 77.3281C295.141 78.3948 295.354 79.3334 295.781 80.1441C296.229 80.9334 296.805 81.5414 297.509 81.9681C298.234 82.3948 299.002 82.6081 299.813 82.6081C300.645 82.6081 301.423 82.4054 302.149 82.0001C302.874 81.5734 303.45 80.9761 303.877 80.2081C304.303 79.4188 304.517 78.4801 304.517 77.3921ZM330.364 68.5281L319.388 94.6401H314.62L318.46 85.8081L311.356 68.5281H316.38L320.956 80.9121L325.596 68.5281H330.364Z" fill="white"/>
<path d="M105.012 79.3798C113.61 74.6589 120.128 71.0616 120.69 70.7821C122.487 69.8262 124.343 67.2967 120.69 65.3317C119.51 64.714 113.16 61.2286 105.012 56.7341L93.7174 68.1408L105.012 79.3798Z" fill="#FFD900"/>
<path d="M93.7174 68.1407L57.7532 104.387C58.5973 104.499 59.5504 104.276 60.674 103.658C63.0331 102.366 88.0406 88.7097 105.012 79.3825L93.7174 68.1407Z" fill="#F43249"/>
<path d="M93.7173 68.1408L105.012 56.79C105.012 56.79 63.2034 33.9738 60.6739 32.6266C59.7208 32.062 58.6531 31.8943 57.6971 32.062L93.7173 68.1408Z" fill="#00EE76"/>
<path d="M93.7174 68.1408L57.6973 32.062C56.2354 32.4002 55 33.6915 55 36.3328V100.117C55 102.534 55.9559 104.276 57.7532 104.443L93.7174 68.1408Z" fill="#00D3FF"/>
</svg>
