<svg id="Layer_1" data-name="Layer 1" xmlns="http://www.w3.org/2000/svg" viewBox="0 0 461.376 164.8202"><defs><style>.cls-1{fill:#fff;}.cls-2{fill:#2ac4f3;}.cls-3{fill:#54f054;}</style></defs><title>kollect</title><path class="cls-1" d="M132.90505,109.40694l-9.87012-18.65039v18.65039H101.57009V38.9753h21.46484V74.987l9.67773-17.32618h23.76465L141.2986,82.4001l16.42481,27.00684Z"/><path class="cls-1" d="M155.42067,83.53389c0-16.48144,12.36133-27.78906,30.28125-27.78906,17.91895,0,30.28028,11.30762,30.28028,27.78906,0,16.48242-12.36133,27.78906-30.28028,27.78906C167.782,111.323,155.42067,100.01631,155.42067,83.53389Zm39.28809,0c0-5.36621-3.833-9.29492-9.00684-9.29492-5.1748,0-9.00781,3.833-9.00781,9.29492s3.833,9.29492,9.00781,9.29492C190.87575,92.82881,194.70876,88.9958,194.70876,83.53389Z"/><path class="cls-1" d="M222.30446,38.9753H243.7693v70.43164H222.30446Z"/><path class="cls-1" d="M252.77516,38.9753H274.24v70.43164H252.77516Z"/><path class="cls-1" d="M339.783,88.0378H301.05837c1.15039,5.0332,4.376,7.57031,9.21,7.57031,3.833,0,7.09082-1.4375,8.52832-4.02441h20.21972c-3.6416,12.36132-14.66113,19.73925-28.748,19.73925-17.249,0-29.70606-11.69043-29.70606-27.88476s12.36133-27.69336,29.70606-27.69336c17.72754,0,29.99316,11.40332,29.99316,27.02246A33.7111,33.7111,0,0,1,339.783,88.0378Zm-38.5459-9.87012h18.24316c-1.05957-4.33984-4.32519-6.80371-9.21191-6.80371C305.66481,71.364,302.5193,73.63252,301.23708,78.16768Z"/><path class="cls-1" d="M343.90016,83.62959c0-16.67382,11.97754-27.69336,29.89649-27.69336,15.81152,0,27.21484,9.77442,28.55664,24.53125H381.84645c-.6709-3.44921-4.12011-6.13281-8.0498-6.13281-5.26953,0-8.624,3.5459-8.624,9.29492,0,5.75,3.3545,9.29493,8.624,9.29493,4.12109,0,7.666-2.874,8.14551-6.61133H402.5447c-1.62891,15.04492-13.12793,25.00976-28.748,25.00976C355.8777,111.323,343.90016,100.30342,343.90016,83.62959Z"/><path class="cls-1" d="M446.14235,90.81709v18.58985H431.67262c-11.499,0-18.39843-6.99512-18.39843-18.49414V73.75948h-9.583V68.489l25.77734-27.501h4.59961V57.66084h11.78614V73.75948H434.739V86.696a3.873,3.873,0,0,0,4.12012,4.12109Z"/><path class="cls-1" d="M79.3922,40.51,61.39155,22.50918a11.68764,11.68764,0,0,0-16.52018,0L15.221,52.1597a11.71086,11.71086,0,0,0,0,16.53957L33.20212,86.68042a11.73465,11.73465,0,0,0,16.53956,0l2.45466-2.45454L79.3922,57.03a11.711,11.711,0,0,0,0-16.52007Zm-4.13,12.39L53.79381,74.36826l-6.234,6.234a6.77719,6.77719,0,0,1-4.96769,3.5651,4.8784,4.8784,0,0,1-1.07145.09738h-.039c-.21426,0-.448-.0195-.66241-.03888a5.82449,5.82449,0,0,1-1.013-.19488,6.73683,6.73683,0,0,1-4.169-3.17545l-6.38979-6.40929L19.351,64.54975a5.84376,5.84376,0,0,1,0-8.26L49.00138,26.6392a5.87943,5.87943,0,0,1,8.26,0L75.26219,44.64a5.87942,5.87942,0,0,1,0,8.26Z"/><path class="cls-2" d="M79.3922,97.76526,52.04045,70.41362l-2.29877-2.29877a11.167,11.167,0,0,0-3.37022-2.33777,12.25721,12.25721,0,0,0-4.85081-.97406,12.43617,12.43617,0,0,0-6.03926,1.55847,1.74566,1.74566,0,0,0-.448.25327,12.0847,12.0847,0,0,0-1.83124,1.50009L15.221,86.096a11.71085,11.71085,0,0,0,0,16.53956l29.6504,29.65052a11.71116,11.71116,0,0,0,16.52018,0L79.3922,114.28544a11.71116,11.71116,0,0,0,0-16.52018Zm-4.13,12.39016L57.26142,128.15608a5.84377,5.84377,0,0,1-8.26,0L19.351,98.50555a5.86734,5.86734,0,0,1,0-8.27953L35.832,73.745a6.6622,6.6622,0,0,1,2.41578-2.24039.58357.58357,0,0,1,.21426-.11688,5.81533,5.81533,0,0,1,3.01957-.85718,5.5803,5.5803,0,0,1,2.49366.58441,6.80794,6.80794,0,0,1,3.4481,2.94169l6.3899,6.38991,21.44888,21.44875a5.87956,5.87956,0,0,1,0,8.26015Z"/><path class="cls-3" d="M53.79381,74.36826a12.45983,12.45983,0,0,0-1.75336-3.95464,12.58818,12.58818,0,0,0-5.669-4.63654,12.25721,12.25721,0,0,0-4.85081-.97406,12.43617,12.43617,0,0,0-6.03926,1.55847,1.74566,1.74566,0,0,0-.448.25327,12.54818,12.54818,0,0,0-5.78587,7.8315,11.72156,11.72156,0,0,0-.37015,3.00007A11.96181,11.96181,0,0,0,29.228,80.349a12.50464,12.50464,0,0,0,1.81174,4.169,12.62346,12.62346,0,0,0,21.15661-.29215,12.323,12.323,0,0,0,1.617-3.77936,11.7226,11.7226,0,0,0,.37015-3.00019A12.45638,12.45638,0,0,0,53.79381,74.36826Zm-5.45472,3.07807a6.58451,6.58451,0,0,1-.7793,3.15595,6.77719,6.77719,0,0,1-4.96769,3.5651,4.8784,4.8784,0,0,1-1.07145.09738h-.039c-.21426,0-.448-.0195-.66241-.03888a5.82449,5.82449,0,0,1-1.013-.19488A6.7832,6.7832,0,0,1,35.832,73.745a6.6622,6.6622,0,0,1,2.41578-2.24039.58357.58357,0,0,1,.21426-.11688,6.69008,6.69008,0,0,1,3.05857-.7403,6.47658,6.47658,0,0,1,2.45466.46753,6.80794,6.80794,0,0,1,3.4481,2.94169A6.68936,6.68936,0,0,1,48.33909,77.44633Z"/></svg>